<svg xmlns="http://www.w3.org/2000/svg" xmlns:xlink="http://www.w3.org/1999/xlink" width="1200" height="1200" viewBox="0 0 1200 1200"><rect width="100%" height="100%" fill="#FFFFFF"></rect><g transform="translate(600 600) scale(0.69 0.69) rotate(0) translate(-600 -600)" style="fill:#000000"><svg fill="#000000" xmlns="http://www.w3.org/2000/svg" xmlns:xlink="http://www.w3.org/1999/xlink" version="1.1" x="0px" y="0px" viewBox="0 0 512 512" style="enable-background:new 0 0 512 512;" xml:space="preserve"><g><g><path d="M312.097,363.589c5.658,1.518,11.459,2.286,17.246,2.286c18.629,0,36.179-7.808,48.618-21.278    L264.57,314.204C269.967,337.948,288.092,357.177,312.097,363.589z"></path><path d="M96.444,196.513c6.003,0,11.944-1.604,17.181-4.639c9.604-5.548,15.758-15.242,16.993-25.864    l-47.875,27.662C87.029,195.531,91.688,196.513,96.444,196.513z"></path><path d="M211.909,156.381c0.118-0.451,0.238-0.903,0.36-1.357c0.062-0.231,0.144-0.454,0.229-0.676    c0.021-0.056,0.035-0.115,0.058-0.171c0.452-1.1,1.173-2.058,2.085-2.792c0.203-0.163,0.417-0.311,0.638-0.45    c0.027-0.018,0.052-0.039,0.08-0.057c0.502-0.31,1.047-0.558,1.625-0.734c0.38-0.116,0.759-0.225,1.139-0.34    c1.659-0.504,3.318-0.997,4.975-1.478c0.396-0.114,0.791-0.225,1.187-0.338c1.11-0.317,2.221-0.64,3.33-0.947h-26.227    C204.21,150.832,207.795,154.021,211.909,156.381z"></path><path d="M289.188,218.289c-5.231-3.031-11.16-4.632-17.152-4.632c-4.756,0-9.422,0.981-13.717,2.841    l47.855,27.652C304.938,233.527,298.785,223.833,289.188,218.289z"></path><path d="M404.555,249.228c-11.089,0-21.26,5.314-27.631,13.89h55.269    C425.812,254.542,415.638,249.228,404.555,249.228z"></path><path d="M194.499,300.952l-57.482,15.418c-0.598,0.161-1.208,0.239-1.813,0.239c-1.607,0-3.186-0.554-4.455-1.6    c-1.746-1.44-2.688-3.636-2.528-5.895c2.416-34.174,26.27-63.096,59.356-71.969c3.039-0.806,6.079-1.411,9.099-1.858    c2.208-19.394,5.871-40.55,11.373-63.564c0.113-0.476,0.224-0.949,0.338-1.426c-11.699-5.522-20.876-15.602-25.145-27.974    c-0.738-2.14-0.396-4.504,0.917-6.347c1.314-1.843,3.437-2.937,5.7-2.937h78.304c2.275,0,4.41,1.106,5.722,2.967    c0.261,0.369,0.471,0.764,0.652,1.169c8.162-1.142,16.187-1.95,24.054-2.413c-2.746-16.67-6.436-33.888-10.997-51.332    c-29.204-10.624-57.839-16.007-85.169-16.007c-63.517,0-123.45,29.232-178.194,86.904    C66.996,310.308,145.42,365.786,199.92,365.786c1.947,0,3.893-0.068,5.827-0.202c-4.377-13.764-7.532-28.704-9.456-44.664    C195.512,314.613,194.9,307.964,194.499,300.952z M96.444,210.513c-11.687,0-22.963-4.217-31.752-11.874    c-1.705-1.484-2.587-3.701-2.369-5.951c0.217-2.25,1.508-4.256,3.465-5.387l67.805-39.179c1.96-1.133,4.348-1.249,6.407-0.308    c2.06,0.939,3.538,2.817,3.968,5.041c3.914,20.265-5.462,40.814-23.333,51.137C113.277,208.257,104.909,210.513,96.444,210.513z"></path><path d="M314.651,148.297c-15.567,0-31.837,1.477-48.67,4.399c-0.587,0.103-1.179,0.211-1.768,0.316    c-1.202,0.216-2.407,0.437-3.615,0.666c-0.712,0.136-1.426,0.277-2.14,0.418c-1.102,0.218-2.206,0.439-3.313,0.669    c-0.766,0.159-1.533,0.321-2.3,0.486c-1.083,0.231-2.167,0.47-3.254,0.714c-0.763,0.171-1.527,0.343-2.292,0.52    c-1.1,0.255-2.202,0.518-3.306,0.783c-0.759,0.183-1.517,0.363-2.278,0.552c-1.078,0.267-2.159,0.545-3.24,0.822    c-0.81,0.209-1.618,0.412-2.43,0.627c-1.088,0.287-2.18,0.587-3.271,0.885c-0.792,0.217-1.583,0.427-2.377,0.649    c-1.465,0.41-2.936,0.837-4.408,1.267c-0.392,0.115-0.782,0.223-1.174,0.339c-0.296,1.168-0.584,2.329-0.869,3.471l-0.466,1.873    c-0.048,0.192-0.109,0.381-0.173,0.567c-6.453,25.766-10.855,50.523-13.233,73.948c-0.001,0.012,0,0.023-0.001,0.035    c-1.727,17.142-2.366,33.763-1.899,49.401c0.008,0.268-0.022,0.527-0.044,0.789c0.047,1.538,0.088,3.08,0.156,4.602    c1.469,30.897,7.157,54.582,13.55,71.974c0.156,0.425,0.262,0.861,0.333,1.301c5.314,14.053,12.096,26.587,20.361,37.355    c18.501,24.105,42.716,36.847,70.027,36.847c54.518,0,132.981-55.539,175.731-211.762    C441.199,176.73,382.796,148.297,314.651,148.297z M241.342,222.858c-1.96-1.132-3.251-3.143-3.466-5.396    c-0.215-2.253,0.673-4.472,2.383-5.954c8.816-7.643,20.101-11.852,31.776-11.852c8.454,0,16.81,2.253,24.163,6.514    c17.861,10.317,27.238,30.869,23.326,51.134c-0.43,2.223-1.907,4.102-3.967,5.041c-0.926,0.422-1.917,0.632-2.906,0.632    c-1.213,0-2.422-0.315-3.502-0.939L241.342,222.858z M395.839,344.502c-14.951,22.149-39.81,35.373-66.496,35.373    c-7.012,0-14.031-0.93-20.866-2.763c-33.061-8.831-56.916-37.736-59.356-71.927c-0.161-2.258,0.78-4.455,2.526-5.896    c1.746-1.44,4.082-1.949,6.268-1.363l133.936,35.898c2.186,0.586,3.953,2.192,4.745,4.312    C397.387,340.256,397.104,342.627,395.839,344.502z M443.735,277.117c-0.006,0-0.014,0-0.02,0h-78.303    c-2.263,0-4.386-1.094-5.699-2.936c-1.313-1.843-1.656-4.206-0.919-6.345c6.722-19.505,25.111-32.609,45.76-32.609    c20.445,0,38.692,12.86,45.586,32.062c0.383,0.864,0.595,1.821,0.595,2.828C450.735,273.983,447.602,277.117,443.735,277.117z"></path><path d="M191.183,250.674c-24.007,6.438-42.135,25.681-47.519,49.419l50.329-13.5    c-0.168-11.434,0.207-23.707,1.271-36.87C193.906,249.996,192.544,250.313,191.183,250.674z"></path></g></g></svg></g></svg>